<svg id="Ebene_1" xmlns="http://www.w3.org/2000/svg" viewBox="0 0 212.6 34.8"><style>.st0{fill:#004B7C;}</style><path class="st0" d="M96.5 29v.6l4.3 2v-.7l-3.5-1.6 3.6-1.6V27l-4.4 2zm8-1.1c-.1 0-.1 0-.1.1v.4c0 .1 0 .1.1.1h.7v2.8c0 1 .3 1.4 1.2 1.4.4 0 .8-.1 1.2-.3.1 0 .1-.1.1-.1l-.1-.4s0-.1-.1-.1h-.1c-.4.2-.6.3-.9.3-.5 0-.6-.2-.6-.8v-2.7h1.3c.1 0 .1 0 .1-.1l.1-.4V28c0-.1 0-.1-.1-.1h-1.5v-1.5c0-.1 0-.1-.1-.1l-.5.1c-.1 0-.1.1-.1.1v1.3h-.6v.1zm5-2.2c0-.1 0-.1-.1-.1l-.5.1c-.1 0-.1.1-.1.1v6.7c0 .1 0 .1.1.1h.5c.1 0 .1 0 .1-.1V29c.5-.4.9-.6 1.3-.6.5 0 .7.2.7.8v3.2s0 .1.1.1h.5c.1 0 .1 0 .1-.1v-3.2c0-1.1-.3-1.5-1.2-1.5-.6 0-1 .2-1.5.6v-2.6zm7.9 4.7c.1 0 .1 0 .1-.2v-.3c0-1.4-.7-2.2-1.8-2.2-1.2 0-1.9 1-1.9 2.5s.8 2.5 2 2.5c.4 0 .7-.1 1.1-.2.3-.1.5-.2.5-.3v-.1l-.2-.4s0-.1-.1-.1h-.1c-.4.2-.8.4-1.1.4-.8 0-1.2-.6-1.3-1.6h2.8zm-1.7-2c.7 0 1 .5 1 1.4h-2.1c0-.9.4-1.4 1.1-1.4zm9 4.3c.1 0 .1 0 0 0l.5-.3s.1 0 .1-.1v-.1l-.1-.1c-.2-.3-.2-.5-.2-1.1v-5.4c0-.1 0-.1-.1-.1h-.1l-.5.1c-.1 0-.1.1-.1.1V28c-.4-.2-.7-.3-1.1-.3-1.1 0-1.7.9-1.7 2.4 0 1.6.6 2.5 1.5 2.5.5 0 .8-.1 1.4-.6.2.4.3.7.4.7zm-.4-1.2c-.4.4-.8.6-1.1.6-.6 0-.9-.6-.9-1.9 0-1.2.3-1.7 1-1.7.3 0 .6.1 1 .3v2.7zm2.2-.1c0 .8.5 1.3 1.3 1.3.5 0 .9-.2 1.4-.6.1.3.3.6.4.6h.1l.4-.3v-.1-.1c-.2-.4-.3-.6-.3-1.3v-1.8c0-.9-.5-1.4-1.5-1.4-.4 0-.8.1-1.2.2-.3.1-.3.2-.3.2v.1l.1.4s0 .1.1.1h.1c.5-.2.8-.3 1.2-.3.7 0 .9.2.9.9v.3c-1.9.1-2.7.6-2.7 1.8zm2.6.1c-.4.4-.8.6-1.1.6-.4 0-.7-.3-.7-.8 0-.7.6-1 1.8-1v1.2zm2-3.6c-.1 0-.1 0-.1.1v.4c0 .1 0 .1.1.1h.7v2.8c0 1 .3 1.4 1.2 1.4.4 0 .8-.1 1.2-.3.1 0 .1-.1.1-.1l-.1-.4s0-.1-.1-.1h-.1c-.4.2-.6.3-.9.3-.5 0-.6-.2-.6-.8v-2.7h1.3c.1 0 .1 0 .1-.1l.1-.4V28c0-.1 0-.1-.1-.1h-1.5v-1.5c0-.1 0-.1-.1-.1l-.5.1c-.1 0-.1.1-.1.1v1.3h-.6v.1zm4 3.5c0 .8.5 1.3 1.3 1.3.5 0 .9-.2 1.4-.6.1.3.3.6.4.6h.1l.4-.3v-.1-.1c-.2-.4-.3-.6-.3-1.3v-1.8c0-.9-.5-1.4-1.5-1.4-.4 0-.8.1-1.2.2-.3.1-.3.2-.3.2v.1l.1.4s0 .1.1.1h.1c.5-.2.8-.3 1.2-.3.7 0 .9.2.9.9v.3c-1.8.1-2.7.6-2.7 1.8zm2.6.1c-.4.4-.8.6-1.1.6-.4 0-.7-.3-.7-.8 0-.7.6-1 1.8-1v1.2zm8.8-1.1c.1 0 .1 0 .1-.2v-.3c0-1.4-.7-2.2-1.8-2.2-1.2 0-1.9 1-1.9 2.5s.8 2.5 2 2.5c.4 0 .7-.1 1.1-.2.3-.1.5-.2.5-.3v-.1l-.2-.4s0-.1-.1-.1h-.1c-.4.2-.8.4-1.1.4-.8 0-1.2-.6-1.3-1.6h2.8zm-1.7-2c.7 0 1 .5 1 1.4h-2.1c0-.9.4-1.4 1.1-1.4zm3.6-.6l-.5.3s-.1 0-.1.1v.1c.2.3.2.5.2.9v3.3c0 .1 0 .1.1.1h.5c.1 0 .1 0 .1-.1V29c.5-.5.8-.6 1.3-.6s.6.2.6.8v3.3c0 .1 0 .1.1.1h.5c.1 0 .1 0 .1-.1v-3.2c0-1.1-.3-1.4-1.2-1.4-.5 0-1 .2-1.6.7.2-.5 0-.8-.1-.8zm7.5 4.2v.9c0 .8-.3 1.1-1 1.1-.4 0-.8-.1-1.3-.4h-.1l-.1.1-.2.4c0 .1 0 .1.1.1.4.3 1 .4 1.6.4 1.1 0 1.7-.6 1.7-1.7v-1.1-2.6c0-.4.1-.7.3-1v-.1-.1l-.5-.3h-.1c-.1 0-.2.2-.3.4-.4-.3-.7-.4-1.2-.4-1.2 0-1.8.9-1.8 2.5 0 1.3.6 2.2 1.5 2.2.6.1 1-.1 1.4-.4zm0-.7c-.5.3-.8.5-1.2.5-.6 0-.9-.5-.9-1.7 0-1.1.4-1.7 1.1-1.7.3 0 .5.1.9.3v2.6h.1zm3.1-5.7c-.3 0-.6.3-.6.6s.3.6.6.6.6-.3.6-.6-.2-.6-.6-.6zm-.3 6.9c0 .1 0 .1.1.1h.5c.1 0 .1 0 .1-.1V28c0-.1 0-.1-.1-.1H158c-.1 0-.1 0-.1.1v.4c0 .1 0 .1.1.1h.8v4h-.1zm3.1-4.7l-.5.3v.2c.2.3.2.5.2.9v3.3c0 .1 0 .1.1.1h.5c.1 0 .1 0 .1-.1V29c.5-.5.8-.6 1.3-.6s.7.2.7.8v3.3c0 .1 0 .1.1.1h.5c.1 0 .1 0 .1-.1v-3.2c0-1.1-.3-1.4-1.2-1.4-.5 0-1 .2-1.6.7 0-.5-.2-.8-.3-.8zm8.2 2.6c.1 0 .1 0 .1-.2v-.3c0-1.4-.7-2.2-1.8-2.2-1.2 0-1.9 1-1.9 2.5s.8 2.5 2 2.5c.4 0 .7-.1 1.1-.2.3-.1.5-.2.5-.3v-.1l-.2-.4s0-.1-.1-.1h-.1c-.4.2-.8.4-1.1.4-.8 0-1.2-.6-1.3-1.6h2.8zm-1.7-2c.7 0 1 .5 1 1.4h-2.1c.1-.9.5-1.4 1.1-1.4zm6.6 2c.1 0 .1 0 .1-.2v-.3c0-1.4-.7-2.2-1.8-2.2-1.2 0-1.9 1-1.9 2.5s.8 2.5 2 2.5c.4 0 .7-.1 1.1-.2.3-.1.5-.2.5-.3v-.1l-.2-.4s0-.1-.1-.1h-.1c-.4.2-.8.4-1.1.4-.8 0-1.2-.6-1.3-1.6h2.8zm-1.8-2c.7 0 1 .5 1 1.4H172c.1-.9.5-1.4 1.1-1.4zm3.9-.2c-.1-.2-.2-.4-.3-.4h-.1l-.4.3s-.1 0-.1.1v.1c.2.4.2.5.2 1.3v2.9c0 .1 0 .1.1.1h.5c.1 0 .1 0 .1-.1v-3.2c.5-.6.7-.7 1-.7.1 0 .1 0 .3.1l.2-.5v-.1l-.1-.1c-.1-.1-.3-.1-.4-.1-.4 0-.6.1-1.1.7l-.1.1c.3-.3.3-.4.2-.5zm2.6 4c0 .1 0 .1.1.1.4.2.9.4 1.4.4.9 0 1.6-.5 1.6-1.4 0-.6-.3-.9-1-1.2l-.7-.3c-.4-.2-.5-.4-.5-.7 0-.4.3-.6.7-.7.3 0 .6.1.9.3h.1s.1 0 .1-.1l.2-.4v-.1s0-.1-.1-.1c-.3-.2-.8-.3-1.1-.3-.9 0-1.5.6-1.5 1.3 0 .4.1.7.4.9.2.2.4.3 1.1.6.5.2.6.4.6.7 0 .4-.3.7-.8.7-.3 0-.8-.1-1.2-.3h-.1s-.1 0-.1.1l-.1.5zm6.2 2.5c0 .1 0 .1.1.1h.4c.1 0 .1 0 .2-.1l3.8-9v-.1c0-.1 0-.1-.1-.1h-.4c-.1 0-.1 0-.2.1l-3.8 9.1zm9.7-5.1V29l-4.3-2v.7l3.5 1.6-3.6 1.6v.7l4.4-2zM58.1 5.7h7.1V2.8h-17v2.9h7.1V17h2.8V5.7zM157.3 5.7h7.1V2.8h-17v2.9h7.1V17h2.8V5.7zM85 2.8H68v2.9h12.1L68 14.2V17h17v-2.8H73l12-8.5V2.8zM104.9 2.8H90.7s-2.8 0-2.8 2.8V17h2.8v-5.7h12.8V8.5H90.7V5.7h14.2V2.8zM184.3 14.2V5.7s0-2.8-2.8-2.8h-11.3s-2.8 0-2.8 2.8v8.5s0 2.8 2.8 2.8h11.3c-.1 0 2.8 0 2.8-2.8zm-2.9-1.4c0 1.4-1.4 1.4-1.4 1.4h-8.5c-1.4 0-1.4-1.4-1.4-1.4V7.1c0-1.4 1.4-1.4 1.4-1.4h8.5c1.4 0 1.4 1.4 1.4 1.4v5.7zM204.1 17v-5l-1.4-2.1s1.4-.8 1.4-2.1V5.7s0-2.8-2.8-2.8h-14.2V17h2.8v-5.7h9.9c1.4 0 1.4 1.4 1.4 1.4V17h2.9zm-2.8-9.9c0 1.4-1.4 1.4-1.4 1.4H190V5.7h9.9c1.4 0 1.4 1.4 1.4 1.4zM130.4 12.8V7.1c0-1.4 1.4-1.4 1.4-1.4h12.8V2.8h-14.2s-2.8 0-2.8 2.8v8.5s0 2.8 2.8 2.8h14.2v-2.8h-12.8c-1.4.1-1.4-1.3-1.4-1.3zM25.5 17V5.7s0-2.8-2.8-2.8H11.3s-2.8 0-2.8 2.8V17h2.8V7.1c0-1.4 1.4-1.4 1.4-1.4h8.5c1.4 0 1.4 1.4 1.4 1.4V17h2.9zM124.7 17V5.7s0-2.8-2.8-2.8h-11.3s-2.8 0-2.8 2.8V17h2.8v-5.7h11.3V17h2.8zm-2.8-8.5h-11.3V7.1c0-1.4 1.4-1.4 1.4-1.4h8.5c1.4 0 1.4 1.4 1.4 1.4v1.4zM45.4 5.7V2.8H31.2s-2.8 0-2.8 2.8v8.5s0 2.8 2.8 2.8h14.2v-2.8H31.2v-2.8H44V8.5H31.2V5.7h14.2zM5.7 19.8V17H2.8V2.8h2.9V0H0v19.8h5.7zM206.9 19.8V17h2.9V2.8h-2.9V0h5.7v19.8h-5.7z"/></svg>